<?xml version="1.0" standalone="no"?>
<!DOCTYPE svg PUBLIC "-//W3C//DTD SVG 20010904//EN"
 "http://www.w3.org/TR/2001/REC-SVG-20010904/DTD/svg10.dtd">
<svg version="1.0" xmlns="http://www.w3.org/2000/svg"
 width="3840.000000pt" height="2160.000000pt" viewBox="0 0 3840.000000 2160.000000"
 preserveAspectRatio="xMidYMid meet">

<g transform="translate(0.000000,2160.000000) scale(0.100000,-0.100000)"
fill="#000000" stroke="none">
<path d="M18970 21233 c-200 -5 -534 -24 -745 -44 -2940 -269 -5618 -1801
-7381 -4220 -1009 -1386 -1667 -3025 -1899 -4732 -24 -181 -67 -588 -63 -592
2 -2 176 -75 388 -163 212 -88 716 -298 1120 -467 404 -169 1318 -550 2030
-847 712 -297 1450 -605 1639 -684 190 -79 350 -144 357 -144 7 0 55 27 106
60 120 78 337 189 480 245 339 132 665 195 1036 199 l193 2 1228 1797 1228
1796 6 178 c4 98 14 239 22 313 205 1835 1656 3288 3472 3475 1440 148 2829
-513 3637 -1730 339 -510 542 -1059 628 -1695 30 -223 32 -707 5 -930 -62
-496 -186 -911 -401 -1335 -354 -698 -895 -1267 -1571 -1650 -552 -314 -1190
-488 -1819 -498 l-169 -2 -1751 -1260 -1751 -1260 -2 -95 c-12 -524 -100 -920
-293 -1327 -145 -305 -319 -553 -564 -801 -449 -457 -994 -738 -1637 -844
-117 -19 -172 -22 -434 -22 -331 0 -434 11 -693 75 -915 225 -1677 895 -2026
1783 -46 114 -112 331 -136 446 l-12 56 -1377 574 c-757 316 -1646 687 -1976
825 -330 138 -602 250 -603 249 -10 -7 130 -451 222 -704 452 -1255 1116
-2377 2005 -3390 171 -195 558 -588 761 -774 702 -643 1443 -1159 2285 -1592
1711 -878 3656 -1253 5595 -1078 1694 152 3306 720 4740 1669 1616 1070 2923
2608 3729 4388 526 1160 823 2366 911 3692 15 219 20 859 10 1090 -132 2828
-1341 5406 -3427 7307 -1229 1120 -2776 1949 -4391 2353 -882 220 -1834 328
-2712 308z"/>
<path d="M22465 16114 c-409 -29 -713 -111 -1044 -279 -904 -459 -1462 -1406
-1428 -2420 7 -197 23 -325 63 -503 232 -1040 1093 -1848 2139 -2005 152 -23
231 -29 397 -29 403 0 755 83 1123 262 582 284 1037 775 1281 1382 240 598
246 1295 17 1903 -244 646 -753 1188 -1378 1467 -221 99 -478 171 -715 202
-120 15 -368 26 -455 20z m440 -674 c336 -57 618 -183 890 -395 102 -80 274
-257 352 -362 517 -697 523 -1637 17 -2344 -76 -106 -266 -304 -369 -384 -459
-358 -1009 -492 -1579 -384 -670 126 -1250 637 -1470 1294 -77 230 -100 377
-99 640 0 169 4 232 21 325 102 556 405 1018 867 1323 249 164 574 277 877
306 132 13 360 4 493 -19z"/>
<path d="M15883 9109 c-173 -15 -369 -57 -528 -112 -65 -23 -68 -25 -45 -35
281 -114 1328 -555 1391 -586 437 -216 751 -632 861 -1136 19 -91 22 -134 22
-320 0 -237 -13 -329 -75 -515 -257 -772 -1045 -1239 -1834 -1085 -160 31
-235 60 -937 353 -351 147 -640 267 -643 267 -8 0 62 -135 108 -210 302 -483
767 -828 1310 -970 204 -54 300 -65 552 -65 247 1 356 14 562 70 861 232 1493
962 1614 1865 19 139 16 440 -5 580 -83 553 -356 1049 -765 1392 -445 372
-1024 557 -1588 507z"/>
</g>
</svg>
