<?xml version="1.0" standalone="no"?>
<!DOCTYPE svg PUBLIC "-//W3C//DTD SVG 20010904//EN"
 "http://www.w3.org/TR/2001/REC-SVG-20010904/DTD/svg10.dtd">
<svg version="1.0" xmlns="http://www.w3.org/2000/svg"
 width="976.000000pt" height="1200.000000pt" viewBox="0 0 976.000000 1200.000000"
 preserveAspectRatio="xMidYMid meet">

<g transform="translate(0.000000,1200.000000) scale(0.100000,-0.100000)"
fill="#000000" stroke="none">
<path d="M7155 11993 c-635 -76 -1298 -452 -1725 -978 -167 -205 -350 -523
-444 -772 -114 -303 -170 -640 -146 -879 6 -60 13 -110 15 -112 14 -14 175
-21 274 -12 380 35 824 228 1180 516 478 385 836 1012 942 1649 23 139 32 451
16 548 -8 46 -9 47 -45 46 -20 -1 -50 -4 -67 -6z"/>
<path d="M6800 9085 c-312 -38 -559 -110 -1075 -310 -758 -295 -801 -295
-1530 -5 -558 222 -795 284 -1125 297 -618 24 -1271 -197 -1800 -608 -118 -91
-327 -294 -430 -416 -455 -539 -730 -1224 -815 -2033 -8 -80 -18 -253 -22
-385 -31 -1248 381 -2708 1088 -3847 146 -234 495 -711 705 -963 583 -697
1071 -912 1715 -754 136 33 224 65 522 188 436 181 655 235 997 248 387 14
674 -47 1115 -237 402 -174 569 -218 856 -227 141 -4 197 -2 280 12 459 76
860 380 1335 1010 469 622 774 1152 1010 1756 55 142 139 389 133 392 -2 1
-66 33 -142 71 -474 237 -888 630 -1151 1094 -272 480 -376 1125 -276 1714
119 696 514 1303 1133 1743 l125 89 -21 31 c-118 166 -310 374 -462 502 -355
298 -774 496 -1255 593 -277 56 -663 75 -910 45z"/>
</g>
</svg>
