<?xml version="1.0" standalone="no"?>
<!DOCTYPE svg PUBLIC "-//W3C//DTD SVG 20010904//EN"
 "http://www.w3.org/TR/2001/REC-SVG-20010904/DTD/svg10.dtd">
<svg version="1.0" xmlns="http://www.w3.org/2000/svg"
 width="512.000000pt" height="512.000000pt" viewBox="0 0 512.000000 512.000000"
 preserveAspectRatio="xMidYMid meet">

<g transform="translate(0.000000,512.000000) scale(0.100000,-0.100000)"
fill="#000000" stroke="none">
<path d="M1922 2688 l3 -1792 395 -128 c217 -70 396 -128 398 -128 1 0 2 690
2 1533 0 1472 1 1534 19 1573 25 55 71 87 135 92 57 4 101 -18 140 -71 21 -28
21 -38 26 -730 l5 -702 80 -27 c102 -35 237 -58 334 -58 136 0 241 40 331 126
97 92 149 192 187 358 24 104 24 436 -1 570 -44 242 -122 394 -276 540 -170
160 -361 248 -876 405 -284 86 -542 156 -730 196 -89 19 -165 35 -168 35 -3 0
-5 -806 -4 -1792z"/>
<path d="M1235 2136 c-680 -227 -816 -276 -960 -347 -195 -96 -275 -175 -275
-270 1 -83 83 -180 206 -242 124 -62 394 -138 624 -174 197 -31 691 -24 898
13 l32 6 0 209 c0 115 -2 209 -4 209 -11 0 -203 -58 -364 -110 -203 -66 -320
-86 -443 -76 -214 18 -271 93 -126 166 33 17 254 94 491 171 237 78 434 145
439 149 4 3 6 110 5 238 l-3 231 -520 -173z"/>
<path d="M3625 2100 c-147 -10 -515 -89 -712 -151 l-33 -11 0 -239 c0 -200 2
-239 14 -239 8 0 245 76 528 169 458 152 524 171 619 181 156 17 310 -8 350
-56 19 -23 1 -62 -40 -90 -42 -27 -378 -145 -1053 -370 l-418 -139 0 -232 c0
-129 4 -233 9 -233 19 0 1566 532 1821 627 195 72 341 169 384 255 45 89 31
155 -49 233 -116 113 -469 235 -810 280 -142 19 -455 27 -610 15z"/>
</g>
</svg>
