<?xml version="1.0" standalone="no"?>
<!DOCTYPE svg PUBLIC "-//W3C//DTD SVG 20010904//EN"
 "http://www.w3.org/TR/2001/REC-SVG-20010904/DTD/svg10.dtd">
<svg version="1.0" xmlns="http://www.w3.org/2000/svg"
 width="512.000000pt" height="512.000000pt" viewBox="0 0 512.000000 512.000000"
 preserveAspectRatio="xMidYMid meet">

<g transform="translate(0.000000,512.000000) scale(0.100000,-0.100000)"
fill="#000000" stroke="none">
<path d="M4550 4859 c-140 -21 -307 -46 -370 -54 -63 -9 -153 -22 -200 -30
-47 -8 -110 -17 -140 -20 -30 -3 -80 -10 -110 -15 -30 -6 -118 -19 -195 -29
-238 -33 -356 -50 -455 -66 -52 -8 -131 -19 -175 -25 -44 -6 -123 -18 -175
-25 -52 -8 -131 -19 -175 -25 -44 -6 -104 -16 -132 -21 l-53 -10 0 -900 0
-899 1228 2 1227 3 0 1074 c0 708 -3 1075 -10 1076 -5 1 -125 -15 -265 -36z"/>
<path d="M1925 4480 c-173 -24 -344 -48 -430 -61 -38 -5 -135 -19 -215 -29
-80 -11 -179 -24 -220 -30 -41 -6 -172 -24 -290 -40 -118 -16 -290 -39 -383
-52 l-167 -23 0 -752 0 -753 920 0 920 0 0 880 c0 484 -1 879 -2 879 -2 -1
-61 -9 -133 -19z"/>
<path d="M220 1682 l0 -758 168 -23 c92 -12 214 -29 272 -36 58 -8 137 -18
175 -24 39 -6 171 -24 295 -41 230 -30 315 -42 620 -85 96 -14 205 -28 243
-32 l67 -6 0 882 0 881 -920 0 -920 0 0 -758z"/>
<path d="M2370 1536 l0 -904 38 -5 c20 -2 75 -10 122 -17 251 -37 649 -93 748
-105 63 -8 153 -21 200 -29 48 -8 114 -17 147 -21 33 -3 101 -13 150 -20 50
-8 191 -28 315 -45 124 -17 266 -37 315 -45 143 -23 336 -49 380 -49 l40 -1 3
1073 2 1072 -1230 0 -1230 0 0 -904z"/>
</g>
</svg>
