<?xml version="1.0" standalone="no"?>
<!DOCTYPE svg PUBLIC "-//W3C//DTD SVG 20010904//EN"
 "http://www.w3.org/TR/2001/REC-SVG-20010904/DTD/svg10.dtd">
<svg version="1.0" xmlns="http://www.w3.org/2000/svg"
 width="512.000000pt" height="512.000000pt" viewBox="0 0 512.000000 512.000000"
 preserveAspectRatio="xMidYMid meet">

<g transform="translate(0.000000,512.000000) scale(0.100000,-0.100000)"
fill="#000000" stroke="none">
<path d="M2325 5109 c-307 -26 -627 -115 -900 -251 -75 -38 -245 -136 -245
-142 0 -2 26 6 58 17 78 28 227 27 335 -2 224 -60 563 -245 883 -483 l101 -75
59 44 c32 24 118 84 189 132 502 340 894 467 1117 362 l43 -21 -25 21 c-32 27
-135 86 -247 143 -411 206 -890 295 -1368 255z"/>
<path d="M4005 4426 c-283 -115 -576 -305 -870 -564 l-111 -97 181 -195 c413
-447 632 -730 852 -1100 269 -453 382 -732 424 -1047 14 -108 7 -401 -12 -507
l-12 -68 -39 120 c-77 242 -272 585 -474 836 -303 375 -671 781 -1101 1216
l-282 285 -77 -75 c-205 -201 -821 -841 -929 -965 -341 -394 -592 -744 -734
-1024 -67 -132 -131 -300 -131 -344 0 -12 -4 -28 -9 -35 -12 -19 -19 16 -31
142 -27 282 60 689 238 1108 160 379 639 1058 1080 1533 62 66 112 123 112
126 0 4 -49 54 -110 112 -320 310 -665 516 -932 558 -109 17 -216 -18 -312
-102 -200 -176 -460 -589 -575 -914 -237 -667 -190 -1399 128 -2023 133 -259
258 -429 476 -647 230 -230 414 -363 689 -495 248 -120 466 -188 741 -232 198
-32 559 -32 752 0 578 94 1056 341 1460 753 514 525 779 1269 712 1999 -52
573 -295 1122 -673 1517 -95 100 -146 133 -234 152 -78 16 -109 13 -197 -23z"/>
</g>
</svg>
